<svg width="43" height="43" viewBox="0 0 43 43" fill="none" xmlns="http://www.w3.org/2000/svg">
<g clip-path="url(#clip0_5309_96)">
<path d="M21.5 37.625C30.4056 37.625 37.625 30.4056 37.625 21.5C37.625 12.5944 30.4056 5.375 21.5 5.375C12.5944 5.375 5.375 12.5944 5.375 21.5C5.375 30.4056 12.5944 37.625 21.5 37.625Z" stroke="white" stroke-width="2" stroke-linecap="round" stroke-linejoin="round"/>
<path d="M21.5 23.2917C24.4685 23.2917 26.875 20.8852 26.875 17.9167C26.875 14.9481 24.4685 12.5417 21.5 12.5417C18.5315 12.5417 16.125 14.9481 16.125 17.9167C16.125 20.8852 18.5315 23.2917 21.5 23.2917Z" stroke="white" stroke-width="2" stroke-linecap="round" stroke-linejoin="round"/>
<path d="M11.051 33.7711C11.4945 32.2952 12.4019 31.0015 13.6386 30.082C14.8754 29.1625 16.3756 28.6662 17.9167 28.6667H25.0834C26.6264 28.6661 28.1285 29.1637 29.3661 30.0853C30.6038 31.0069 31.5109 32.3033 31.9526 33.7819" stroke="white" stroke-width="2" stroke-linecap="round" stroke-linejoin="round"/>
</g>
<defs>
<clipPath id="clip0_5309_96">
<rect width="43" height="43" fill="white"/>
</clipPath>
</defs>
</svg>
